#N canvas 908 23 924 968 10;
#X obj 305 250 image img/drone.jpg 0;
#X obj 57 504 osc~ 132;
#X obj 87 344 *~ 80;
#X obj 87 384 +~ 572;
#X obj 146 424 osc~ 352;
#X obj 116 464 +~;
#X obj 116 504 *~ 0.5;
#X obj 87 544 +~;
#X obj 264 544 *~;
#X obj 294 504 sig~ 1;
#X obj 442 544 *~;
#X obj 471 504 sig~ 1;
#X obj 353 584 *~;
#X obj 220 624 *~;
#X obj 279 624 osc~ 264;
#X obj 249 664 +~;
#X obj 249 704 *~ 0.5;
#X obj 427 664 noise~;
#X obj 397 704 *~;
#X obj 323 744 +~;
#X obj 394 804 *~;
#X obj 417 747 phasor~ 1;
#X obj 368 664 osc~ 1;
#X obj 370 421 int;
#X obj 329 313 nbx 2 14 -1e+37 1e+37 0 0 empty empty empty 0 -8 0 10
-262144 -1 -1 0 256 0;
#X obj 489 198 metro 1000;
#X obj 501 744 osc~ 1;
#X obj 256 160 vsl 15 50 0 5 0 0 empty empty empty 0 -9 0 10 -1 -262144
-1 0 1;
#X obj 285 160 vsl 15 50 0 1000 0 0 empty empty empty 0 -9 0 10 -1
-262144 -1 0 1;
#X obj 314 160 vsl 15 50 1 16 0 0 empty empty empty 0 -9 0 10 -1 -262144
-1 0 1;
#X obj 342 160 vsl 15 50 0 3 0 0 empty empty empty 0 -9 0 10 -1 -262144
-1 0 1;
#X text 252 140 Mod1 Mod2 Ph1 Ph2;
#X obj 412 504 osc~ 230;
#X obj 235 504 osc~ 123;
#X obj 87 424 osc~ 572;
#X obj 87 584 *~ 0.2;
#X obj 87 304 osc~ 10;
#X obj 395 866 dac~;
#X obj 471 784 *~ 0.3;
#X obj 323 784 *~ 0.3;
#X obj 247 94 inlet;
#X obj 282 94 inlet;
#X obj 317 94 inlet;
#X obj 352 94 inlet;
#X obj 132 853 delwrite~ chorus1 500;
#X obj 195 884 + 23;
#X obj 142 935 delread~ chorus1 500;
#X obj 382 385 * 43;
#X obj 544 823 lop~;
#X obj 249 281 hsl 110 15 20 20000 1 1 empty empty empty -2 -8 0 10
-1 -262144 -1 6600 1;
#X obj 516 71 inlet;
#X obj 483 809 *~ 0.4;
#X connect 1 0 7 0;
#X connect 2 0 3 0;
#X connect 3 0 34 0;
#X connect 4 0 5 1;
#X connect 5 0 6 0;
#X connect 6 0 7 1;
#X connect 7 0 35 0;
#X connect 8 0 12 0;
#X connect 9 0 8 1;
#X connect 10 0 12 1;
#X connect 11 0 10 1;
#X connect 12 0 13 1;
#X connect 13 0 15 0;
#X connect 14 0 15 1;
#X connect 15 0 16 0;
#X connect 16 0 19 0;
#X connect 17 0 18 1;
#X connect 18 0 19 1;
#X connect 19 0 39 0;
#X connect 20 0 51 0;
#X connect 21 0 38 0;
#X connect 22 0 18 0;
#X connect 23 0 24 0;
#X connect 23 0 33 1;
#X connect 24 0 22 1;
#X connect 25 0 21 1;
#X connect 27 0 6 1;
#X connect 28 0 33 0;
#X connect 29 0 47 0;
#X connect 30 0 21 0;
#X connect 32 0 10 0;
#X connect 33 0 8 0;
#X connect 34 0 5 0;
#X connect 35 0 13 0;
#X connect 36 0 2 0;
#X connect 38 0 20 1;
#X connect 39 0 20 0;
#X connect 40 0 27 0;
#X connect 41 0 28 0;
#X connect 42 0 29 0;
#X connect 43 0 30 0;
#X connect 45 0 46 0;
#X connect 46 0 37 0;
#X connect 47 0 23 0;
#X connect 48 0 44 0;
#X connect 48 0 37 1;
#X connect 49 0 48 1;
#X connect 50 0 49 0;
#X connect 51 0 48 0;
#X coords 0 -1 1 1 127 166 2 243 136;
