#N canvas 555 141 1005 794 10;
#X obj 421 295 hradio 15 0 0 16 empty empty empty 0 -8 0 10 -1 -128992
-262144 0;
#X msg 461 49 stop;
#X msg 493 100 o;
#X obj 421 136 i;
#X floatatom 421 176 5 0 0 0 - - -, f 5;
#X obj 421 210 % 16;
#X floatatom 421 245 5 0 0 0 - - -, f 5;
#X msg 421 49 bang;
#X text 418 12 Start;
#X text 459 12 Stop;
#N canvas 0 22 450 300 (subpatch) 0;
#X array kseq1 16 float 19 black black;
#A 0 0 0 0 0 0 0 0 0 0 0 0 0 0 0 0 0;
#X coords 0 1 16 0 240 25 1;
#X restore 420 315 graph;
#N canvas 0 22 450 300 (subpatch) 0;
#X array kseq2 16 float 19 black black;
#A 0 1 0 0 0 0 0 0 0 0 0 0 0 0 0 0 0;
#X coords 0 1 16 0 240 25 1;
#X restore 421 346 graph;
#N canvas 0 22 450 300 (subpatch) 0;
#X array kseq3 16 float 19 black black;
#A 0 1 0 0 0 0 0 0 1 0 0 0 0 0 0 0 0;
#X coords 0 1 16 0 240 25 1;
#X restore 421 376 graph;
#N canvas 0 22 450 300 (subpatch) 0;
#X array kseq4 16 float 19 black black;
#A 0 1 0 0 0 1 0 0 0 1 0 0 0 1 0 0 0;
#X coords 0 1 16 0 240 25 1;
#X restore 421 406 graph;
#X obj 390 311 vradio 30 0 0 5 empty empty empty 0 -8 0 23 -262144
-1 -1 0;
#N canvas 0 22 450 300 (subpatch) 0;
#X array kseq5 16 float 19 black black;
#A 0 0 0 0 0 0 0 0 0 0 0 0 0 0 0 0 0;
#X coords 0 1 16 0 240 25 1;
#X restore 421 436 graph;
#X obj 421 28 inlet;
#X obj 461 28 inlet;
#X obj 307 28 inlet;
#X obj 372 28 inlet;
#X text 370 12 Special;
#X msg 372 49 4;
#X floatatom 307 49 5 0 0 0 - - -, f 5;
#X text 305 12 Seq_Number;
#X obj 450 136 + 1, f 4;
#X obj 669 295 vradio 20 0 1 4 empty empty empty 0 -8 0 10 -262144
-1 -1 2;
#X text 691 317 1/4;
#X text 691 337 1/8;
#X text 691 357 1/16;
#X text 691 297 1/2;
#X obj 662 158 expr 1000/pow(2 \, $i1);
#X floatatom 138 419 5 0 0 0 - - -, f 5;
#X floatatom 389 502 5 0 0 0 - - -, f 5;
#X floatatom 55 417 5 0 0 0 - - -, f 5;
#X floatatom 304 420 5 0 0 0 - - -, f 5;
#X floatatom 221 418 5 0 0 0 - - -, f 5;
#X floatatom 159 562 5 0 0 0 - - -, f 5;
#X floatatom 159 618 5 0 0 0 - - -, f 5;
#X obj 252 620 outlet;
#X obj 250 556 outlet;
#X text 295 556 Continuous;
#X text 300 621 Discrete;
#X obj 156 465 sel 0 1 2 3;
#X obj 63 511 f;
#X obj 160 592 int;
#X obj 162 511 f;
#X obj 220 511 f;
#X obj 276 513 f;
#X text 550 274 Start;
#X text 622 273 Stop;
#X text 464 274 Special;
#X text 385 274 Seq_Number;
#X text 384 465 Continuous;
#X text 529 465 Discrete;
#X obj 270 718 outlet;
#X text 320 718 Bang;
#X text 681 463 Bang;
#X obj 421 100 metro 500;
#X obj 251 673 sel 0 1;
#X obj 217 711 bng 15 250 50 0 empty empty empty 17 7 0 10 -262144
-1 -1;
#X obj 55 381 tabread kseq1;
#X obj 138 381 tabread kseq2;
#X obj 221 382 tabread kseq3;
#X obj 304 382 tabread kseq4;
#X text 689 274 Q;
#X obj 659 55 inlet;
#X connect 0 0 60 0;
#X connect 0 0 61 0;
#X connect 0 0 62 0;
#X connect 0 0 63 0;
#X connect 1 0 57 0;
#X connect 2 0 3 1;
#X connect 3 0 4 0;
#X connect 3 0 24 0;
#X connect 4 0 5 0;
#X connect 5 0 6 0;
#X connect 6 0 0 0;
#X connect 7 0 2 0;
#X connect 7 0 57 0;
#X connect 14 0 32 0;
#X connect 14 0 42 0;
#X connect 16 0 7 0;
#X connect 17 0 1 0;
#X connect 18 0 22 0;
#X connect 19 0 21 0;
#X connect 21 0 14 0;
#X connect 22 0 14 0;
#X connect 24 0 3 1;
#X connect 25 0 30 0;
#X connect 30 0 57 1;
#X connect 36 0 39 0;
#X connect 36 0 44 0;
#X connect 37 0 38 0;
#X connect 37 0 58 0;
#X connect 42 0 43 0;
#X connect 42 1 45 0;
#X connect 42 2 46 0;
#X connect 42 3 47 0;
#X connect 43 0 36 0;
#X connect 44 0 37 0;
#X connect 45 0 36 0;
#X connect 46 0 36 0;
#X connect 47 0 36 0;
#X connect 57 0 3 0;
#X connect 57 0 14 0;
#X connect 58 1 54 0;
#X connect 58 1 59 0;
#X connect 60 0 33 0;
#X connect 60 0 43 1;
#X connect 61 0 31 0;
#X connect 61 0 45 1;
#X connect 62 0 35 0;
#X connect 62 0 46 1;
#X connect 63 0 34 0;
#X connect 63 0 47 1;
#X connect 65 0 25 0;
#X coords 0 -1 1 1 340 210 2 382 273;
