#N canvas 335 38 1316 871 10;
#X obj 541 133 image img/kick.jpg 0;
#X obj 430 345 log~ 2048;
#X obj 430 367 *~ 70;
#X obj 430 388 abs~;
#X obj 430 409 *~ 32;
#X obj 430 430 -~ 1200;
#X obj 454 469 clip~ 50 10000, f 18;
#X obj 454 491 osc~;
#X obj 454 536 *~;
#X obj 665 465 curve~;
#X obj 698 425 r \$0-o;
#X msg 430 302 0 \, 1 \$1;
#X obj 430 282 i;
#X obj 506 433 expr $f1 * 130 + 20;
#N canvas 319 296 450 300 lin2log 0;
#X obj 84 -4 t 2 f;
#X obj 84 -83 inlet;
#X obj 84 74 outlet;
#X obj 84 36 pow, f 5;
#X obj 84 -34 * 14.29;
#X connect 0 0 3 0;
#X connect 0 1 3 1;
#X connect 1 0 4 0;
#X connect 3 0 2 0;
#X connect 4 0 0 0;
#X restore 529 618 pd lin2log;
#X obj 454 640 onepole~;
#X obj 445 251 * 8000;
#X msg 698 445 -0.1;
#X msg 684 338 set \$1;
#X msg 665 369 1173.81;
#X msg 665 403 0.8 \, 0 \$1;
#X obj 684 317 expr $f1 * 2950 + 50;
#X obj 454 578 *~;
#X obj 454 600 clip~ -1 1;
#X obj 430 323 vline~;
#X obj 454 662 dac~;
#X obj 563 112 bng 17 250 50 0 empty empty empty 17 7 0 10 -136588
-258049 -1;
#X obj 439 5 inlet;
#X obj 618 41 hsl 22 25 0 1 0 1 empty empty empty -2 -8 0 10 -1 -262144
-1 1100 1;
#X obj 582 41 hsl 22 25 0 1 0 1 empty empty empty -2 -8 0 10 -1 -262144
-1 1300 1;
#X obj 473 41 hsl 22 25 0 1 0 1 empty empty empty -2 -8 0 10 -1 -262144
-1 600 1;
#X obj 509 41 hsl 22 25 0 1 0 1 empty empty empty -2 -8 0 10 -1 -262144
-1 800 1;
#X obj 546 41 hsl 22 25 0 1 0 1 empty empty empty -2 -8 0 10 -1 -262144
-1 400 1;
#X obj 473 5 inlet;
#X obj 508 5 inlet;
#X obj 543 5 inlet;
#X obj 578 5 inlet;
#X obj 613 5 inlet;
#X obj 486 556 expr $f1 * 3 + 1;
#X text 440 24 ______Dcy___Rel___Rso___LPF___Vol;
#X connect 1 0 2 0;
#X connect 2 0 3 0;
#X connect 3 0 4 0;
#X connect 4 0 5 0;
#X connect 5 0 6 0;
#X connect 6 0 7 0;
#X connect 7 0 8 0;
#X connect 8 0 22 0;
#X connect 9 0 8 1;
#X connect 10 0 17 0;
#X connect 11 0 24 0;
#X connect 12 0 11 0;
#X connect 13 0 6 1;
#X connect 14 0 15 1;
#X connect 15 0 25 0;
#X connect 15 0 25 1;
#X connect 16 0 12 1;
#X connect 17 0 9 2;
#X connect 18 0 19 0;
#X connect 19 0 20 0;
#X connect 20 0 9 0;
#X connect 21 0 18 0;
#X connect 22 0 23 0;
#X connect 23 0 15 0;
#X connect 24 0 1 0;
#X connect 26 0 12 0;
#X connect 26 0 19 0;
#X connect 27 0 26 0;
#X connect 28 0 38 0;
#X connect 29 0 14 0;
#X connect 30 0 16 0;
#X connect 31 0 21 0;
#X connect 32 0 13 0;
#X connect 33 0 30 0;
#X connect 34 0 31 0;
#X connect 35 0 32 0;
#X connect 36 0 29 0;
#X connect 37 0 28 0;
#X connect 38 0 22 1;
#X coords 0 -1 1 1 219 192 2 431 24;
