#N canvas 900 403 658 567 10;
#X obj 62 26 notein;
#X floatatom 99 52 5 0 0 0 - - -, f 5;
#X obj 87 125 i;
#X obj 158 125 i;
#X obj 228 125 i;
#X obj 299 125 i;
#X floatatom 89 218 5 0 0 0 - - -, f 5;
#X floatatom 159 218 5 0 0 0 - - -, f 5;
#X floatatom 227 219 5 0 0 0 - - -, f 5;
#X floatatom 297 217 5 0 0 0 - - -, f 5;
#X obj 104 272 vradio 40 0 0 4 empty empty empty 0 -8 0 10 -1 -128992
-1 3;
#X obj 145 272 vradio 40 0 0 4 empty empty empty 0 -8 0 10 -1 -128992
-1 3;
#X obj 186 272 vradio 40 0 0 4 empty empty empty 0 -8 0 10 -1 -128992
-1 3;
#X obj 227 272 vradio 40 0 0 4 empty empty empty 0 -8 0 10 -1 -128992
-1 3;
#X obj 100 468 outlet;
#X obj 148 468 outlet;
#X obj 195 468 outlet;
#X obj 243 468 outlet;
#X obj 62 74 sel 52 53 54 55 56 57 58 59 60 61 62 63 64 65 66 67;
#X obj 19 153 expr (abs($i1-64))/4;
#X obj 116 179 expr (abs($i1-65))/4;
#X obj 181 153 expr (abs($i1-66))/4;
#X obj 254 178 expr (abs($i1-67))/4;
#X connect 0 0 1 0;
#X connect 0 0 2 1;
#X connect 0 0 3 1;
#X connect 0 0 4 1;
#X connect 0 0 5 1;
#X connect 0 0 18 0;
#X connect 2 0 19 0;
#X connect 3 0 20 0;
#X connect 4 0 21 0;
#X connect 5 0 22 0;
#X connect 6 0 10 0;
#X connect 7 0 11 0;
#X connect 8 0 12 0;
#X connect 9 0 13 0;
#X connect 10 0 14 0;
#X connect 11 0 15 0;
#X connect 12 0 16 0;
#X connect 13 0 17 0;
#X connect 18 0 2 0;
#X connect 18 1 3 0;
#X connect 18 2 4 0;
#X connect 18 3 5 0;
#X connect 18 4 2 0;
#X connect 18 5 3 0;
#X connect 18 6 4 0;
#X connect 18 7 5 0;
#X connect 18 8 2 0;
#X connect 18 9 3 0;
#X connect 18 10 4 0;
#X connect 18 11 5 0;
#X connect 18 12 2 0;
#X connect 18 13 3 0;
#X connect 18 14 4 0;
#X connect 18 15 5 0;
#X connect 19 0 6 0;
#X connect 20 0 7 0;
#X connect 21 0 8 0;
#X connect 22 0 9 0;
#X coords 0 -1 1 1 175 175 2 98 265;
