#N canvas 900 403 658 567 10;
#X obj 62 26 notein;
#X floatatom 99 52 5 0 0 0 - - -, f 5;
#X obj 62 74 sel 36 37 38 39 40 41 42 43 44 45 46 47 48 49 50 51;
#X obj 87 125 i;
#X obj 158 125 i;
#X obj 228 125 i;
#X obj 299 125 i;
#X floatatom 89 218 5 0 0 0 - - -, f 5;
#X floatatom 159 218 5 0 0 0 - - -, f 5;
#X obj 19 153 expr (abs($i1-48))/4;
#X obj 116 179 expr (abs($i1-49))/4;
#X floatatom 227 219 5 0 0 0 - - -, f 5;
#X obj 181 153 expr (abs($i1-50))/4;
#X floatatom 297 217 5 0 0 0 - - -, f 5;
#X obj 254 178 expr (abs($i1-51))/4;
#X obj 104 272 vradio 40 0 0 4 empty empty empty 0 -8 0 10 -1 -128992
-1 0;
#X obj 145 272 vradio 40 0 0 4 empty empty empty 0 -8 0 10 -1 -128992
-1 0;
#X obj 186 272 vradio 40 0 0 4 empty empty empty 0 -8 0 10 -1 -128992
-1 0;
#X obj 227 272 vradio 40 0 0 4 empty empty empty 0 -8 0 10 -1 -128992
-1 0;
#X obj 100 468 outlet;
#X obj 148 468 outlet;
#X obj 195 468 outlet;
#X obj 243 468 outlet;
#X connect 0 0 1 0;
#X connect 0 0 2 0;
#X connect 0 0 3 1;
#X connect 0 0 4 1;
#X connect 0 0 5 1;
#X connect 0 0 6 1;
#X connect 2 0 3 0;
#X connect 2 1 4 0;
#X connect 2 2 5 0;
#X connect 2 3 6 0;
#X connect 2 4 3 0;
#X connect 2 5 4 0;
#X connect 2 6 5 0;
#X connect 2 7 6 0;
#X connect 2 8 3 0;
#X connect 2 9 4 0;
#X connect 2 10 5 0;
#X connect 2 11 6 0;
#X connect 2 12 3 0;
#X connect 2 13 4 0;
#X connect 2 14 5 0;
#X connect 2 15 6 0;
#X connect 3 0 9 0;
#X connect 4 0 10 0;
#X connect 5 0 12 0;
#X connect 6 0 14 0;
#X connect 7 0 15 0;
#X connect 8 0 16 0;
#X connect 9 0 7 0;
#X connect 10 0 8 0;
#X connect 11 0 17 0;
#X connect 12 0 11 0;
#X connect 13 0 18 0;
#X connect 14 0 13 0;
#X connect 15 0 19 0;
#X connect 16 0 20 0;
#X connect 17 0 21 0;
#X connect 18 0 22 0;
#X coords 0 -1 1 1 175 175 2 98 265;
