#N canvas 166 48 1608 880 10;
#X obj 976 467 tarola;
#X obj 1080 225 loadbang;
#X obj 705 24 midifighter3d;
#X obj 1322 465 drone;
#X obj 498 250 kicksequencer;
#X obj 488 24 twister;
#X msg 1510 100 \; pd dsp 0;
#X msg 1442 100 \; pd dsp 1;
#X obj 1442 38 bng 24 250 50 0 empty empty empty 17 7 0 10 -66577 -84639
-1;
#X obj 1514 41 bng 24 250 50 0 empty empty empty 17 7 0 10 -66577 -214163
-1;
#X text 1439 21 DSP ON;
#X text 1508 20 DSP OFF;
#X obj 560 468 kick;
#X obj 857 251 snaresequencer;
#X obj 151 250 grainsequencer;
#X obj 162 466 granular;
#X obj 894 24 midifighter3d2;
#X obj 1214 250 dronesequencer;
#X obj 1213 472 expr $f1 * 20000;
#X obj 262 780 ctlin 0 1;
#X obj 354 782 ctlin 4 1;
#X obj 427 781 ctlin 8 1;
#X obj 426 812 * 157;
#X obj 351 832 * 0.00393701;
#X obj 570 725 ctlin 1 1;
#X obj 644 726 ctlin 5 1;
#X obj 716 727 ctlin 9 1;
#X obj 785 728 ctlin 13 1;
#X obj 581 790 / 127;
#X obj 638 787 / 127;
#X obj 722 787 / 127;
#X obj 779 784 / 127;
#X obj 945 719 ctlin 2 1;
#X obj 1009 720 ctlin 6 1;
#X obj 1075 721 ctlin 10 1;
#X obj 1148 723 ctlin 14 1;
#X obj 912 792 + 123;
#X floatatom 912 838 5 0 0 0 - - -, f 5;
#X obj 876 759 expr ($f1/127) * 543;
#X floatatom 1003 871 5 0 0 0 - - -, f 5;
#X obj 1003 825 + 22;
#X obj 967 792 expr ($f1/127) * 328;
#X obj 1035 760 expr $f1/127 * 0.9;
#X floatatom 1160 871 5 0 0 0 - - -, f 5;
#X obj 1160 825 + 22;
#X obj 1124 792 expr ($f1/127) * 5000;
#X obj 1284 697 ctlin 3 1;
#X obj 1344 696 ctlin 7 1;
#X obj 1404 697 ctlin 11 1;
#X obj 1471 697 ctlin 15 1;
#X obj 1240 739 expr ($f1/127) * 5;
#X obj 1277 777 expr ($f1/127) * 1000;
#X obj 1160 825 + 22;
#X obj 1124 792 expr ($f1/127) * 5000;
#X obj 1431 772 + 1;
#X obj 1392 735 expr ($f1/127) * 16;
#X obj 1469 772 expr ($f1/127) * 3;
#X connect 1 0 13 2;
#X connect 1 0 4 2;
#X connect 1 0 17 2;
#X connect 1 0 14 2;
#X connect 2 0 14 0;
#X connect 2 1 4 0;
#X connect 2 2 13 0;
#X connect 2 3 17 0;
#X connect 4 2 12 0;
#X connect 8 0 7 0;
#X connect 9 0 6 0;
#X connect 13 2 0 0;
#X connect 14 0 15 0;
#X connect 16 0 14 4;
#X connect 16 1 4 4;
#X connect 16 2 13 4;
#X connect 16 3 17 4;
#X connect 17 0 18 0;
#X connect 18 0 3 4;
#X connect 19 0 15 1;
#X connect 20 0 23 0;
#X connect 21 0 22 0;
#X connect 22 0 15 3;
#X connect 23 0 15 2;
#X connect 24 0 28 0;
#X connect 25 0 29 0;
#X connect 26 0 30 0;
#X connect 27 0 31 0;
#X connect 28 0 12 1;
#X connect 29 0 12 2;
#X connect 30 0 12 4;
#X connect 31 0 12 5;
#X connect 32 0 38 0;
#X connect 33 0 41 0;
#X connect 34 0 42 0;
#X connect 35 0 45 0;
#X connect 36 0 0 1;
#X connect 36 0 37 0;
#X connect 38 0 36 0;
#X connect 40 0 39 0;
#X connect 41 0 40 0;
#X connect 41 0 0 2;
#X connect 42 0 0 3;
#X connect 44 0 43 0;
#X connect 44 0 0 4;
#X connect 45 0 44 0;
#X connect 46 0 50 0;
#X connect 47 0 51 0;
#X connect 48 0 55 0;
#X connect 49 0 56 0;
#X connect 50 0 3 0;
#X connect 51 0 3 1;
#X connect 53 0 52 0;
#X connect 54 0 3 2;
#X connect 55 0 54 0;
#X connect 56 0 3 3;
#X coords 0 -1 1 1 1443 668 2 133 18;
