#N canvas 977 169 943 870 10;
#X obj 195 261 image img/snare.jpg 0;
#X obj 173 395 osc~ 330;
#X obj 234 395 osc~ 180;
#X obj 280 322 vline~;
#X obj 179 321 vline~;
#X obj 175 437 *~;
#X obj 243 437 *~;
#X obj 194 348 *~;
#X obj 279 349 *~;
#X obj 407 417 noise~;
#X obj 402 322 vline~;
#X obj 401 349 *~;
#X obj 503 322 vline~;
#X obj 387 483 *~;
#X obj 463 522 *~;
#X obj 244 465 *~ 0.75;
#X obj 407 446 lop~ 1000;
#X obj 427 483 hip~ 950;
#X msg 279 302 1 0 0 \, 0 70 0;
#X msg 179 301 1 0 0 \, 0 40 0;
#X msg 401 302 1 0 0 \, 0 50 0;
#X obj 376 804 dac~;
#X obj 139 111 inlet;
#X obj 87 116 inlet;
#X text 84 92 Tono (123-666) / Bang;
#X obj 189 261 bng 13 250 50 0 empty empty empty 17 7 0 10 -1 -258049
-1;
#X obj 159 179 hsl 30 15 123 666 0 0 empty empty empty -2 -8 0 10 -1
-258049 -1 2694 1;
#X obj 376 740 delread~ dly 150;
#X obj 377 701 delwrite~ dly 500;
#X text 429 672 Delay Circuit;
#X obj 502 721 *~ 0.3;
#X obj 159 210 hsl 30 15 0 0.9 0 0 empty empty empty -2 -8 0 10 -1
-258049 -1 2786 1;
#X obj 502 349 *~;
#X obj 388 522 *~ 0.7;
#X msg 503 302 1 0 0 \, 0 40 0;
#X obj 201 210 hsl 30 15 22 5000 0 0 empty empty empty -2 -8 0 10 -1
-258049 -1 1330 1;
#X text 157 194 Delay__Noise;
#X obj 201 179 hsl 30 15 22 350 0 0 empty empty empty -2 -8 0 10 -1
-258049 -1 0 1;
#X text 159 158 Pitch__Rep;
#X obj 179 110 inlet;
#X obj 222 109 inlet;
#X obj 262 109 inlet;
#X obj 374 649 *~ 0.9;
#X connect 1 0 5 0;
#X connect 2 0 6 0;
#X connect 3 0 8 0;
#X connect 3 0 8 1;
#X connect 4 0 7 0;
#X connect 4 0 7 1;
#X connect 5 0 42 0;
#X connect 6 0 15 0;
#X connect 7 0 5 1;
#X connect 8 0 6 1;
#X connect 9 0 16 0;
#X connect 10 0 11 0;
#X connect 10 0 11 1;
#X connect 11 0 13 1;
#X connect 12 0 32 0;
#X connect 13 0 33 0;
#X connect 14 0 42 0;
#X connect 15 0 42 0;
#X connect 16 0 13 0;
#X connect 16 0 17 0;
#X connect 17 0 14 0;
#X connect 18 0 3 0;
#X connect 19 0 4 0;
#X connect 20 0 10 0;
#X connect 22 0 26 0;
#X connect 23 0 25 0;
#X connect 25 0 18 0;
#X connect 25 0 20 0;
#X connect 25 0 34 0;
#X connect 25 0 19 0;
#X connect 26 0 1 0;
#X connect 27 0 21 0;
#X connect 27 0 21 1;
#X connect 27 0 30 0;
#X connect 30 0 28 0;
#X connect 31 0 30 1;
#X connect 32 0 14 1;
#X connect 33 0 42 0;
#X connect 34 0 12 0;
#X connect 35 0 16 1;
#X connect 37 0 27 0;
#X connect 39 0 37 0;
#X connect 40 0 31 0;
#X connect 41 0 35 0;
#X connect 42 0 28 0;
#X coords 0 -1 1 1 98 139 2 146 153;
